# xmcd
#
# Track frame offsets:
#	150
#	16876
#	32462
#	51472
#	77022
#	101507
#	119275
#	138556
#	157213
#	169862
#	181865
#	206583
#	224029
#	238446
#	252912
#
# Disc length: 3711 seconds
#
# Revision: 0
# Processed by: cddbd v1.5.2PL0 Copyright (c) Steve Scherf et al.
# Submitted via: EasyCDDAExtractor 16.0.8.2
#
DISCID=da0e7d0f
DTITLE=Παπακωνσταντίνου Βασίλης - Από μένα τον Βασίλη 2
DYEAR=2015
DGENRE=Ποικίλη
TTITLE0=Βράδυ Σαββάτου [Χρ. Κυριαζής]
TTITLE1=Με τον Μπομπ Ντύλαν [Αντ. Βαρδής-Π. Φαλάρας]
TTITLE2=Οι ψυχές και οι αγάπες [Απ. Μπουλασίκης]
TTITLE3=Πριν το τέλος [Lucio Battisti-Mogol, απ.Λ.Νικολακοπούλου]
TTITLE4=Σεμπάστιαν [Steve Harley, απ. Σάκης Μπουλάς]
TTITLE5=Άσε με να κάνω λάθος [Ανδρέας Τσιλιφώνης]
TTITLE6=Σπάνε οι χορδές μου [Χρ. Τόλιος-Θοδ. Παυλάκος]
TTITLE7=Κάντιλακ [Θ. Μικρούτσικος-Κ. Τριπολίτης]
TTITLE8=Τρίτος παγκόσμιος [Μ. Λοΐζος-Γ. Νεγρεπόντης]
TTITLE9=Φεύγουν καράβια [Αντ. Βαρδής-Π. Φαλάρας]
TTITLE10=Ο μαύρος γάτος [Β. Παπακων/νου-Θ. Παπακων/νου]
TTITLE11=Στο λιμάνι του Άμστερνταμ [Jacques Brel, απ. Γ. Αραπάκης]
TTITLE12=Από μένα τον Βασίλη [Β. Παπακων/νου-Β. Γιαννόπουλος]
TTITLE13=Στο παζάρι του ληστή [Μ. Θεοδωράκης-Μ. Ελευθερίου]
TTITLE14=Μπαλάντα για τον Γιάννη Κ. [Ανδρέας Τσιλιφώνης]
EXTD=
EXTT0=
EXTT1=
EXTT2=
EXTT3=
EXTT4=
EXTT5=
EXTT6=
EXTT7=
EXTT8=
EXTT9=
EXTT10=
EXTT11=
EXTT12=
EXTT13=
EXTT14=
PLAYORDER=
